# xmcd CD database file
#
# Track frame offsets:
#	150
#	8030
#	20306
#	37442
#	50252
#	62980
#	72719
#	84237
#	97220
#	109494
#	121120
#
# Disc length: 1730 seconds
#
# Revision: 1
# Processed by: cddbd v1.5.2PL0 Copyright (c) Steve Scherf et al.
# Submitted via: CDex 1.70beta2
#
DISCID=9a06c00b
DTITLE=Dale McKay - Gospel Music in the Country Tradition
DYEAR=1900
DGENRE=Country
TTITLE0=Where the Soul of a Man Never Dies
TTITLE1=The Old Rugged Cross
TTITLE2=Mansion Over the Hilltop
TTITLE3=What a Friend We Have in Jesus
TTITLE4=In the Sweet By and By
TTITLE5=Let the Spirit Descend
TTITLE6=It is no Secret
TTITLE7=The Old Country Church
TTITLE8=Church in the Wildwood
TTITLE9=When God Comes to Gather His Jewels
TTITLE10=When God Dips His Pen of Love
EXTD=
EXTT0=
EXTT1=
EXTT2=
EXTT3=
EXTT4=
EXTT5=
EXTT6=
EXTT7=
EXTT8=
EXTT9=
EXTT10=
PLAYORDER=
